<svg xmlns="http://www.w3.org/2000/svg" xmlns:xlink="http://www.w3.org/1999/xlink" width="400" height="400" viewBox="0 0 400 400"><defs><linearGradient id="gradient-19"><stop stop-color="#905e25" offset="0"/><stop stop-color="#f5ec8b" offset="0.5"/><stop stop-color="#905e36" offset="1"/></linearGradient></defs><g data-name="icon" fill="url(#gradient-19)" data="id:7700288" transform="translate(27.272772798950307, 27.265168721642752) scale(3.454702325330465)">
    
 <path d="m24.797 37.027c-0.44531 1.0352-0.69141 2.1836-0.69141 3.3789 0 4.4336 3.3633 8.043 7.4961 8.043 0.17969 0 0.36328-0.007813 0.54297-0.023438 0.88281 3.1367 3.7656 5.4453 7.1836 5.4453 1.1016 0 2.1641-0.23438 3.1562-0.69922 1.2148-0.57031 2.1484-1.5156 2.6953-2.6641h6.9023c0.55859 2.5859 2.8633 4.5273 5.6133 4.5273 3.168 0 5.7461-2.5781 5.7461-5.7461 0-3.168-2.5781-5.7461-5.7461-5.7461-2.75 0-5.0547 1.9414-5.6133 4.5273h-6.3594v-3.8672h2.9609 0.003906 0.011719c0.042969 0 0.085937-0.003906 0.12891-0.007813 0.011719 0 0.027344-0.003906 0.039063-0.007812 0.035156-0.003906 0.070312-0.011719 0.10156-0.019531 0.011719-0.003907 0.027344-0.007813 0.039062-0.011719 0.035157-0.007812 0.070313-0.019531 0.10156-0.03125 0.011719-0.003906 0.023437-0.007812 0.03125-0.011719 0.042969-0.019531 0.085937-0.035156 0.12891-0.058593 0 0 0.003907 0 0.003907-0.003907 0.039062-0.019531 0.074218-0.042969 0.11328-0.070312 0.011719-0.007813 0.027343-0.019531 0.039062-0.03125 0.023438-0.019531 0.046875-0.039063 0.070313-0.058594 0.011718-0.011719 0.027344-0.023437 0.039062-0.035156 0.03125-0.027344 0.058594-0.058594 0.085938-0.089844 0.003906-0.003906 0.007812-0.007813 0.011718-0.011719 0.03125-0.039062 0.058594-0.078125 0.085938-0.11719 0.003906-0.003907 0.003906-0.007813 0.007812-0.011719l3.3633-5.375h4.0117c0.55859 2.5859 2.8633 4.5273 5.6133 4.5273 3.168 0 5.7461-2.5781 5.7461-5.7461s-2.5781-5.7461-5.7461-5.7461c-2.75 0-5.0547 1.9414-5.6133 4.5273h-4.6836-0.019531c-0.023438 0-0.042969 0.003906-0.066407 0.003906-0.019531 0-0.039062 0.003906-0.054687 0.003906-0.019532 0.003907-0.039063 0.003907-0.054688 0.007813-0.023437 0.003906-0.042968 0.007813-0.066406 0.011719-0.015625 0.003906-0.027344 0.007812-0.042969 0.011718-0.023437 0.007813-0.046875 0.011719-0.070312 0.019532-0.011719 0.003906-0.027344 0.011718-0.042969 0.015625-0.023438 0.007812-0.046875 0.015625-0.066406 0.027343-0.015625 0.007813-0.03125 0.015626-0.046875 0.023438-0.019531 0.007812-0.039063 0.019531-0.054688 0.027344-0.019531 0.011718-0.039062 0.023437-0.054687 0.035156-0.015625 0.007812-0.027344 0.019531-0.042969 0.027344-0.019531 0.011718-0.039063 0.027344-0.058594 0.042968-0.011719 0.007813-0.023437 0.019532-0.035156 0.027344-0.019531 0.015625-0.035156 0.03125-0.054687 0.050782-0.011719 0.011718-0.023438 0.019531-0.035157 0.03125-0.015625 0.015624-0.027343 0.03125-0.042969 0.046874-0.011718 0.015626-0.027343 0.027344-0.039062 0.042969-0.011719 0.011719-0.023438 0.027344-0.03125 0.042969-0.011719 0.019531-0.027344 0.039062-0.039062 0.058594-0.003907 0.003906-0.007813 0.007812-0.011719 0.015625l-3.3633 5.375h-2.2891l-0.011719-17.145v-0.007813-7.6602h2.2891l3.3633 5.375c0.003906 0.003906 0.003906 0.007812 0.007812 0.011719 0.027344 0.039062 0.054688 0.082031 0.085938 0.11719 0.003906 0.003906 0.007812 0.007813 0.011719 0.011719 0.027343 0.03125 0.054687 0.0625 0.085937 0.089844 0.011719 0.011718 0.027344 0.023437 0.039063 0.035156 0.023437 0.019531 0.046875 0.039062 0.070312 0.058594 0.011719 0.011718 0.027344 0.019531 0.039063 0.03125 0.035156 0.023437 0.074218 0.046874 0.10938 0.070312l0.003906 0.003906c0.039063 0.023438 0.082031 0.042969 0.12891 0.058594 0.011719 0.003906 0.023438 0.007812 0.035157 0.011719 0.035156 0.011719 0.066406 0.023437 0.10156 0.03125 0.011719 0.003906 0.027344 0.007812 0.039062 0.011719 0.035157 0.007812 0.066407 0.015624 0.10156 0.019531 0.011719 0.003906 0.027344 0.003906 0.039063 0.007812 0.042968 0.003907 0.085937 0.007813 0.12891 0.007813h0.011718 0.003907 4.6836c0.55859 2.5859 2.8633 4.5273 5.6133 4.5273 3.168 0 5.7461-2.5781 5.7461-5.7461 0-3.168-2.5781-5.7461-5.7461-5.7461-2.75 0-5.0547 1.9414-5.6133 4.5273h-4.0195l-3.3633-5.375c-0.003906-0.003906-0.007812-0.007813-0.011719-0.015625-0.011719-0.019531-0.027343-0.039063-0.039062-0.058594-0.011719-0.015625-0.019531-0.027344-0.03125-0.042969s-0.023438-0.03125-0.039063-0.042968c-0.015625-0.015626-0.027344-0.03125-0.042968-0.046876-0.011719-0.011718-0.023438-0.023437-0.035157-0.03125-0.019531-0.015624-0.035156-0.035156-0.054687-0.046874-0.011719-0.007813-0.023438-0.019532-0.035156-0.027344-0.019532-0.015625-0.039063-0.03125-0.058594-0.042969-0.015625-0.007813-0.027344-0.019531-0.042969-0.027344-0.019531-0.011719-0.035156-0.023437-0.054687-0.035156-0.019532-0.011719-0.039063-0.019531-0.058594-0.027344-0.015625-0.007812-0.03125-0.015625-0.046875-0.023437-0.023438-0.007813-0.042969-0.019532-0.066407-0.027344-0.011718-0.003906-0.027343-0.011719-0.042968-0.015625-0.023438-0.007813-0.046875-0.011719-0.070313-0.019531-0.015625-0.003906-0.03125-0.007813-0.042969-0.011719-0.019531-0.003906-0.042968-0.007813-0.0625-0.011719-0.019531-0.003906-0.039062-0.007812-0.054687-0.007812-0.019531-0.003906-0.035156-0.003906-0.054687-0.003906-0.023438-0.003907-0.046876-0.003907-0.070313-0.003907h-0.019531-2.9648v-3.8672h6.3594c0.55859 2.5859 2.8633 4.5273 5.6133 4.5273 3.168 0 5.7461-2.5781 5.7461-5.7461 0-3.168-2.5781-5.7461-5.7461-5.7461-2.75 0-5.0547 1.9414-5.6133 4.5273h-6.9023c-0.54688-1.1523-1.4805-2.0977-2.6953-2.668-0.99219-0.46484-2.0547-0.69922-3.1562-0.69922-3.4141 0-6.3008 2.3086-7.1836 5.4453-0.17969-0.011719-0.36328-0.023438-0.54297-0.023438-4.1328 0-7.4961 3.6055-7.4961 8.043 0 1.1953 0.24219 2.3398 0.69141 3.3789-3.0469 1.0352-5.2383 4.0977-5.2383 7.668 0.003906 3.5742 2.1953 6.6367 5.2422 7.668zm37.914-3.3008c1.8242 0 3.3086 1.4844 3.3086 3.3086 0 1.8242-1.4844 3.3086-3.3086 3.3086-1.8242 0-3.3086-1.4844-3.3086-3.3086-0.003906-1.8203 1.4805-3.3086 3.3086-3.3086zm0-15.355c1.8242 0 3.3086 1.4844 3.3086 3.3086 0 1.8242-1.4844 3.3086-3.3086 3.3086-1.8242 0-3.3086-1.4844-3.3086-3.3086-0.003906-1.8242 1.4805-3.3086 3.3086-3.3086zm-5.0156 27.605c1.8242 0 3.3086 1.4844 3.3086 3.3086 0 1.8242-1.4844 3.3086-3.3086 3.3086-1.8242 0-3.3086-1.4844-3.3086-3.3086 0-1.8242 1.4844-3.3086 3.3086-3.3086zm0-39.855c1.8242 0 3.3086 1.4844 3.3086 3.3086 0 1.8242-1.4844 3.3086-3.3086 3.3086-1.8242 0-3.3086-1.4844-3.3086-3.3086 0-1.8242 1.4844-3.3086 3.3086-3.3086zm-31.539 17.723c0.83203 0.94531 1.8828 1.6797 3.0898 2.1055 0.13281 0.046875 0.27344 0.070312 0.40625 0.070312 0.5 0 0.96875-0.3125 1.1484-0.80859 0.22656-0.63281-0.10547-1.332-0.73828-1.5547-0.94531-0.33594-1.75-0.95703-2.3516-1.7578-0.023438-0.035157-0.046876-0.070313-0.074219-0.10547-0.69141-0.96484-1.0898-2.1797-1.0898-3.4805 0-3.0898 2.2695-5.6055 5.0625-5.6055 0.089844 0 0.18359 0.003907 0.27344 0.007813 0.039063 0.73828 0.1875 1.4531 0.4375 2.1406-0.44531 0.75-0.72656 1.582-0.80859 2.4453-0.066407 0.66797 0.42188 1.2656 1.0938 1.332 0.039062 0.003907 0.082031 0.007813 0.12109 0.007813 0.61719 0 1.1484-0.46875 1.2109-1.0977 0.0625-0.64844 0.31641-1.2734 0.72266-1.8047 0.73047-0.94922 1.8906-1.4609 3.0234-1.3438 0.66797 0.070313 1.2695-0.41406 1.3359-1.0859 0.070313-0.66797-0.41406-1.2695-1.0859-1.3359-1.2578-0.13281-2.5234 0.17969-3.6016 0.83984-0.015625-0.16406-0.027343-0.33203-0.027343-0.5 0-2.7695 2.2539-5.0273 5.0273-5.0273 0.74219 0 1.457 0.16016 2.125 0.46875 1.1484 0.53516 1.8359 1.6133 1.8359 2.8828v13.617c-0.91406 1.3164-2.7773 1.707-4.3047 0.85547-0.089843-0.050781-0.17578-0.10156-0.26172-0.16016-0.55859-0.375-1.3164-0.22656-1.6914 0.33203s-0.22656 1.3164 0.33203 1.6914c0.023437 0.015625 0.042968 0.027344 0.066406 0.042969 0.24609 0.66406 0.24609 1.3984-0.007813 2.0977-0.30078 0.82812-0.91016 1.5078-1.7266 1.9141-0.089844 0.046875-0.18359 0.085937-0.28125 0.125-0.625 0.25-0.92969 0.95703-0.67969 1.582 0.19141 0.47656 0.64844 0.76562 1.1328 0.76562 0.14844 0 0.30469-0.027344 0.45312-0.085938 0.16016-0.0625 0.31641-0.13281 0.46484-0.21094 1.375-0.6875 2.4141-1.8477 2.9258-3.2617 0.23438-0.64844 0.34766-1.3203 0.33594-1.9805 0.21484 0.023437 0.42969 0.039062 0.64453 0.039062 0.91016 0 1.8008-0.21484 2.5938-0.61719v20.699c0 1.2695-0.68359 2.3438-1.8359 2.8828-0.66797 0.3125-1.3828 0.46875-2.125 0.46875-2.7695 0-5.0273-2.2539-5.0273-5.0273 0-0.16797 0.007813-0.33594 0.027344-0.5 0.91406 0.5625 1.9648 0.87109 3.0352 0.87109 0.19141 0 0.37891-0.007813 0.57031-0.027344 0.66797-0.070312 1.1523-0.66797 1.0859-1.3359-0.070312-0.66797-0.66797-1.1523-1.3359-1.0859-1.1328 0.11719-2.293-0.39844-3.0234-1.3438-0.41016-0.53125-0.66016-1.1523-0.72266-1.8047-0.066406-0.66797-0.66016-1.1602-1.332-1.0938-0.66797 0.066406-1.1602 0.66016-1.0938 1.332 0.085937 0.86328 0.36328 1.6953 0.80859 2.4453-0.25 0.6875-0.39844 1.4023-0.4375 2.1406-0.089843 0.003906-0.18359 0.007813-0.27344 0.007813-2.7891 0-5.0625-2.5156-5.0625-5.6055 0-1.3047 0.40625-2.5234 1.1016-3.4922 0.015624-0.019531 0.03125-0.042968 0.046874-0.066406 0.60156-0.81641 1.4141-1.4453 2.3711-1.7852 0.63281-0.22656 0.96484-0.92188 0.73828-1.5547-0.22656-0.63281-0.92188-0.96484-1.5547-0.73828-1.207 0.42969-2.2578 1.1641-3.0898 2.1055-2.375-0.47266-4.1602-2.7773-4.1602-5.5156-0.003906-2.7383 1.7812-5.043 4.1562-5.5156zm23.844 4.2969c-0.67188 0-1.2188 0.54297-1.2188 1.2188 0 0.67188 0.54297 1.2188 1.2188 1.2188h19.078c0.55859 2.5859 2.8633 4.5273 5.6133 4.5273 3.168 0 5.7461-2.5781 5.7461-5.7461s-2.5781-5.7461-5.7461-5.7461c-2.75 0-5.0547 1.9414-5.6133 4.5273zm24.695-2.0898c1.8242 0 3.3086 1.4844 3.3086 3.3086s-1.4844 3.3086-3.3086 3.3086c-1.8242 0-3.3086-1.4844-3.3086-3.3086-0.003907-1.8242 1.4805-3.3086 3.3086-3.3086zm20.961 60.641h-2.9844v-46.363c0-2.6289-2.1367-4.7656-4.7656-4.7656h-6.1602c-0.67188 0-1.2188 0.54297-1.2188 1.2188 0 0.67188 0.54297 1.2188 1.2188 1.2188h6.1602c1.2852 0 2.332 1.0469 2.332 2.332v46.367l-80.477-0.003907v-46.367c0-1.2852 1.0469-2.332 2.332-2.332h6.1602c0.67188 0 1.2188-0.54297 1.2188-1.2188 0-0.67188-0.54297-1.2188-1.2188-1.2188h-6.1602c-2.6289 0-4.7656 2.1367-4.7656 4.7656v46.367h-2.9844c-0.67578 0-1.2188 0.54688-1.2188 1.2188v3.5938c0 2.6523 2.1602 4.8086 4.8086 4.8086h84.129c2.6523 0 4.8086-2.1602 4.8086-4.8086v-3.5938c0.003906-0.67188-0.53906-1.2188-1.2148-1.2188zm-52.449 2.4375h13.586v1.0938c0 0.03125-0.03125 0.0625-0.0625 0.0625h-13.461c-0.03125 0-0.0625-0.03125-0.0625-0.0625zm51.234 2.375c0 1.3086-1.0664 2.375-2.375 2.375h-84.133c-1.3086 0-2.375-1.0664-2.375-2.375v-2.375h35.211v1.0938c0 1.3789 1.1211 2.5 2.5 2.5h13.461c1.3789 0 2.5-1.1211 2.5-2.5v-1.0938h35.211zm-40.832-31.984c0.63672 0.21484 0.98047 0.90234 0.76562 1.543l-6.4453 19.215c-0.17188 0.50781-0.64453 0.83203-1.1523 0.83203-0.12891 0-0.25781-0.019531-0.38672-0.0625-0.63672-0.21484-0.98047-0.90234-0.76562-1.543l6.4453-19.215c0.21094-0.64062 0.90234-0.98437 1.5391-0.76953zm-10.547 4.8672-10.977 5.8945 10.977 5.8945c0.59375 0.31641 0.81641 1.0547 0.49609 1.6484-0.21875 0.41016-0.64062 0.64062-1.0742 0.64062-0.19531 0-0.39062-0.046875-0.57422-0.14453l-12.973-6.9648c-0.39453-0.21094-0.64062-0.625-0.64062-1.0742s0.24609-0.85938 0.64062-1.0742l12.973-6.9648c0.58984-0.32031 1.332-0.097657 1.6484 0.49609 0.32031 0.59375 0.097656 1.332-0.49609 1.6484zm13.875 11.789 10.977-5.8945-10.977-5.8945c-0.59375-0.31641-0.81641-1.0547-0.49609-1.6484 0.31641-0.59375 1.0547-0.81641 1.6484-0.49609l12.973 6.9648c0.39453 0.21094 0.64062 0.625 0.64062 1.0742s-0.24609 0.85938-0.64062 1.0742l-12.973 6.9648c-0.18359 0.097657-0.37891 0.14453-0.57422 0.14453-0.43359 0-0.85547-0.23047-1.0742-0.64062-0.32031-0.59375-0.097656-1.332 0.49609-1.6484z" fill="#000000"/>

    </g></svg>